# xmcd CD database file
#
# Track frame offsets:
#	150
#	12695
#	25307
#	41095
#	50460
#	70405
#	79252
#	98300
#	113680
#	120135
#	131155
#	141117
#	151177
#	166412
#
# Disc length: 2609 seconds
#
# Revision: 2
# Processed by: cddbd v1.5.1PL2 Copyright (c) Steve Scherf et al.
# Submitted via: CdAid (MTCDDB.DLL V2003.12.21)
#
DISCID=b20a2f0e
DTITLE=Burl Ives - America's Folk Singer - Burl Lives [CD1 of 3)
DYEAR=1995
DGENRE=Country
TTITLE0=Singalong: Funny Way of Laughin'
TTITLE1=Foggy Foggy Dew
TTITLE2=Chivalrous Shark
TTITLE3=Big Rock Candy Mountain
TTITLE4=Mary Ann Regrets
TTITLE5=Little Bitty Tear
TTITLE6=Singalong: Music Alone Shall Live
TTITLE7=Streets of Laredo
TTITLE8=Lavender Cowboy
TTITLE9=Git Along Little Doggie
TTITLE10=The Shearing Song
TTITLE11=Time
TTITLE12=I Know An Old Lady
TTITLE13=Barbara Allen
EXTD=ID3G:   2 YEAR: 1995
EXTT0=
EXTT1=
EXTT2=
EXTT3=
EXTT4=
EXTT5=
EXTT6=
EXTT7=
EXTT8=
EXTT9=
EXTT10=
EXTT11=
EXTT12=
EXTT13=
PLAYORDER=
